<?xml version="1.0" encoding="utf-8"?>
<!-- Generator: Adobe Illustrator 19.0.0, SVG Export Plug-In . SVG Version: 6.00 Build 0)  -->
<svg version="1.1" id="Layer_1" xmlns="http://www.w3.org/2000/svg" xmlns:xlink="http://www.w3.org/1999/xlink" x="0px" y="0px"
	 viewBox="0 0 650 100" style="enable-background:new 0 0 650 100;" xml:space="preserve">
<g id="XMLID_1_">
	<path id="XMLID_4_" d="M72.3,57.3V13.1h20c2.9,0,5.3,1.2,7.3,3.5c2,2.3,3.1,5.1,3.1,8.4c0,3.4-1,6.4-3.1,8.8
		c-2,2.4-4.4,3.7-7.3,3.7h-17v19.8H72.3z M91.7,34.7c2.2,0,4-0.9,5.6-2.7c1.5-1.7,2.3-3.9,2.3-6.4c0-2.6-0.8-4.9-2.3-6.8
		c-1.5-1.8-3.4-2.8-5.6-2.8H75.2v18.6H91.7z"/>
	<path id="XMLID_7_" d="M135.8,80.7c-3.6-4.1-5.4-9.6-5.4-16.4c0-7.1,1.8-12.7,5.4-16.9c3.6-4.2,8.3-6.3,14.3-6.3
		c6,0,10.7,2.1,14.3,6.3c3.6,4.2,5.4,9.9,5.4,16.9c0,6.8-1.8,12.3-5.4,16.4c-3.6,4.1-8.3,6.2-14.3,6.2
		C144.1,86.9,139.3,84.8,135.8,80.7z M162.2,78.7c3-3.6,4.5-8.4,4.5-14.4c0-6.2-1.5-11.1-4.5-14.8c-3-3.7-7.1-5.6-12.1-5.6
		s-9.1,1.9-12.1,5.6c-3,3.7-4.5,8.7-4.5,14.8c0,6,1.5,10.8,4.5,14.4c3,3.6,7.1,5.4,12.1,5.4S159.2,82.3,162.2,78.7z"/>
	<path id="XMLID_10_" d="M200.8,57.3V13.1h4.7l16.2,40.5l16.1-40.5h4.7v44.2h-3V16.6L223,57.3h-2.8l-16.5-40.8v40.8H200.8z"/>
	<path id="XMLID_12_" d="M278.8,80.7c-3.6-4.1-5.4-9.6-5.4-16.4c0-7.1,1.8-12.7,5.4-16.9c3.6-4.2,8.3-6.3,14.3-6.3
		c6,0,10.7,2.1,14.3,6.3c3.6,4.2,5.4,9.9,5.4,16.9c0,6.8-1.8,12.3-5.4,16.4c-3.6,4.1-8.3,6.2-14.3,6.2
		C287.1,86.9,282.4,84.8,278.8,80.7z M305.2,78.7c3-3.6,4.5-8.4,4.5-14.4c0-6.2-1.5-11.1-4.5-14.8c-3-3.7-7.1-5.6-12.1-5.6
		s-9.1,1.9-12.1,5.6c-3,3.7-4.5,8.7-4.5,14.8c0,6,1.5,10.8,4.5,14.4c3,3.6,7.1,5.4,12.1,5.4S302.2,82.3,305.2,78.7z"/>
	<path id="XMLID_15_" d="M343.8,13.1h17.5c4.7,0,8.7,2.1,12,6.3c3.3,4.2,4.9,9.2,4.9,15.2c0,6.3-1.6,11.6-4.9,16
		c-3.3,4.4-7.3,6.6-12,6.6h-17.5V13.1z M361.3,54.5c3.8,0,7.1-1.9,9.8-5.8c2.7-3.9,4.1-8.5,4.1-14c0-5.2-1.4-9.6-4.1-13.2
		c-2.7-3.6-6-5.4-9.8-5.4h-14.5v38.5H361.3z"/>
	<path id="XMLID_18_" d="M412.1,80.7c-3.6-4.1-5.4-9.6-5.4-16.4c0-7.1,1.8-12.7,5.4-16.9c3.6-4.2,8.3-6.3,14.3-6.3
		c6,0,10.7,2.1,14.3,6.3c3.6,4.2,5.4,9.9,5.4,16.9c0,6.8-1.8,12.3-5.4,16.4c-3.6,4.1-8.3,6.2-14.3,6.2
		C420.4,86.9,415.6,84.8,412.1,80.7z M438.5,78.7c3-3.6,4.5-8.4,4.5-14.4c0-6.2-1.5-11.1-4.5-14.8c-3-3.7-7.1-5.6-12.1-5.6
		s-9.1,1.9-12.1,5.6c-3,3.7-4.5,8.7-4.5,14.8c0,6,1.5,10.8,4.5,14.4c3,3.6,7.1,5.4,12.1,5.4S435.5,82.3,438.5,78.7z"/>
	<path id="XMLID_21_" d="M477,57.3V13.1h21.1c3,0,5.6,1.1,7.8,3.4c2.1,2.2,3.2,5,3.2,8.2c0,2.8-0.6,5.3-1.9,7.4
		c-1.3,2.1-3,3.3-5,3.7c1.8,0.5,3.3,2.1,4.5,4.7c1.1,2.6,1.7,5.8,1.7,9.5c0,2.1,0,3.7,0.1,4.7c0.1,1.2,0.3,2.1,0.6,2.6h-3
		c-0.5-0.6-0.8-1.7-1-3.3l-0.2-6.3c0-3-0.7-5.5-2.2-7.7c-1.4-2.1-3.1-3.1-5.1-3.1H480v20.4H477z M497.6,34.2c2.3,0,4.3-0.9,6-2.7
		c1.6-1.7,2.5-3.9,2.5-6.4c0-2.5-0.8-4.6-2.5-6.4c-1.7-1.7-3.7-2.6-6-2.6H480v18.1H497.6z"/>
	<path id="XMLID_24_" d="M543.8,80.7c-3.6-4.1-5.4-9.6-5.4-16.4c0-7.1,1.8-12.7,5.4-16.9c3.6-4.2,8.3-6.3,14.3-6.3
		c6,0,10.7,2.1,14.3,6.3c3.6,4.2,5.4,9.9,5.4,16.9c0,6.8-1.8,12.3-5.4,16.4c-3.6,4.1-8.3,6.2-14.3,6.2
		C552.1,86.9,547.3,84.8,543.8,80.7z M570.2,78.7c3-3.6,4.5-8.4,4.5-14.4c0-6.2-1.5-11.1-4.5-14.8c-3-3.7-7.1-5.6-12.1-5.6
		s-9.1,1.9-12.1,5.6c-3,3.7-4.5,8.7-4.5,14.8c0,6,1.5,10.8,4.5,14.4c3,3.6,7.1,5.4,12.1,5.4S567.2,82.3,570.2,78.7z"/>
</g>
</svg>
